<svg xmlns="http://www.w3.org/2000/svg" width="430" height="430" fill="none" viewBox="0 0 430 430"><path fill="url(#rAFnq3aMkla)" d="M136 270a9 9 0 0 1 9-9h140a9 9 0 0 1 9 9 9 9 0 0 1-9 9H145a9 9 0 0 1-9-9"/><path fill="url(#zq6Hv_pi2Sb)" d="M161.864 305a9 9 0 0 1 9-9h88.272a9 9 0 0 1 9 9 9 9 0 0 1-9 9h-88.272a9 9 0 0 1-9-9"/><path fill="url(#cyumXwDA7Rc)" fill-rule="evenodd" d="M145 131a9 9 0 0 0-9 9v50a9 9 0 0 0 9 9h140a9 9 0 0 0 9-9v-50a9 9 0 0 0-9-9zm9 50v-32h122v32z" clip-rule="evenodd"/><path fill="url(#E50WVdkxT8d)" fill-rule="evenodd" d="M84 58.667C84 37.898 100.898 21 121.666 21h215.793a9 9 0 0 1 9 9v331a9 9 0 0 1-9 9H200v40a9 9 0 0 1-13.717 7.665L165 404.568l-21.283 13.097A9 9 0 0 1 130 410v-40h-8.334c-10.4 0-19.786-4.131-26.66-11.006C88.279 352.267 84 342.897 84 332.438zm18 32.113v241.658c0 5.444 2.208 10.302 5.734 13.828 3.587 3.588 8.43 5.734 13.932 5.734h206.793V96.333H121.666A37.44 37.44 0 0 1 102 90.78M121.666 39C110.839 39 102 47.84 102 58.667s8.839 19.666 19.666 19.666h206.793V39z" clip-rule="evenodd"/><defs><linearGradient id="rAFnq3aMkla" x1="169.857" x2="374.64" y1="109.386" y2="261.497" gradientUnits="userSpaceOnUse"><stop stop-color="#cb5eee"/><stop offset="1" stop-color="#4be1ec"/></linearGradient><linearGradient id="zq6Hv_pi2Sb" x1="169.857" x2="374.64" y1="109.386" y2="261.497" gradientUnits="userSpaceOnUse"><stop stop-color="#cb5eee"/><stop offset="1" stop-color="#4be1ec"/></linearGradient><linearGradient id="cyumXwDA7Rc" x1="169.857" x2="374.64" y1="109.386" y2="261.497" gradientUnits="userSpaceOnUse"><stop stop-color="#cb5eee"/><stop offset="1" stop-color="#4be1ec"/></linearGradient><linearGradient id="E50WVdkxT8d" x1="169.857" x2="374.64" y1="109.386" y2="261.497" gradientUnits="userSpaceOnUse"><stop stop-color="#cb5eee"/><stop offset="1" stop-color="#4be1ec"/></linearGradient></defs></svg>